<svg width="500" height="500" viewBox="0 0 80 86" xmlns="http://www.w3.org/2000/svg">
  <path fill="#232332" d="M65,6H15C6.8,6,0,12.8,0,21v4v46c0,8.3,6.8,15,15,15h50c8.3,0,15-6.7,15-15V25v-4C80,12.8,73.3,6,65,6z" />
  <path fill="#585880" d="M65,0H15C6.8,0,0,6.8,0,15v4v46c0,8.3,6.8,15,15,15h50c8.3,0,15-6.7,15-15V19v-4C80,6.8,73.3,0,65,0z" />
  <path fill="#FFFFFF" d="M18,20c1.6,0,3.1,1.1,3.5,2.7l6.4,23.8L35,22.6c0.5-1.6,1.9-2.6,3.5-2.6h4.1c1.6,0,3.1,1.1,3.6,2.6l7.3,23.9L60,22.7c0.4-1.6,1.9-2.7,3.5-2.7H66c1.6,0,2.9,1.4,2.9,3c0,0.2-0.1,0.5-0.1,0.8l-10,35.5c-0.5,1.6-1.9,2.7-3.5,2.7H51c-1.2,0-2.3-0.8-2.8-2l-8.1-25l-8,25c-0.4,1.2-1.6,2-2.8,2H25c-1.6,0-3.1-1.1-3.5-2.6L11,23.8c-0.1-0.3-0.1-0.6-0.1-0.9c0-1.6,1.3-2.9,2.9-2.9H18z" />
</svg>
