<svg xmlns="http://www.w3.org/2000/svg" xmlns:xlink="http://www.w3.org/1999/xlink">
  <symbol viewBox="0 0 512.001 512.001" id="ua">
    <path style="fill:#4173CD;" d="M512,256H0V97.103c0-4.875,3.953-8.828,8.828-8.828h494.345c4.875,0,8.828,3.953,8.828,8.828L512,256L512,256z" />
    <path style="fill:#FFE15A;" d="M0,256h512v158.897c0,4.875-3.953,8.828-8.828,8.828H8.828c-4.875,0-8.828-3.953-8.828-8.828V256z" />
  </symbol>

  <symbol viewBox="0 0 512 512" id="en">
    <path style="fill:#F5F5F5;" d="M503.172,423.725H8.828c-4.875,0-8.828-3.953-8.828-8.828V97.104c0-4.875,3.953-8.828,8.828-8.828h494.345c4.875,0,8.828,3.953,8.828,8.828v317.793C512,419.773,508.047,423.725,503.172,423.725z" />
    <g>
      <path style="fill:#FF4B55;" d="M512,114.081H0V97.104c0-4.875,3.953-8.828,8.828-8.828h494.345c4.875,0,8.828,3.953,8.828,8.828L512,114.081L512,114.081z" />
      <rect y="191.491" style="fill:#FF4B55;" width="512" height="25.804" />
      <rect y="139.881" style="fill:#FF4B55;" width="512" height="25.804" />
      <path style="fill:#FF4B55;" d="M512,268.903H8.828c-4.875,0-8.828-3.953-8.828-8.828v-16.977h512V268.903z" />
      <rect y="346.321" style="fill:#FF4B55;" width="512" height="25.804" />
      <path style="fill:#FF4B55;" d="M503.172,423.725H8.828c-4.875,0-8.828-3.953-8.828-8.828v-16.976h512v16.977C512,419.773,508.047,423.725,503.172,423.725z" />
      <rect y="294.711" style="fill:#FF4B55;" width="512" height="25.804" />
    </g>
    <path style="fill:#41479B;" d="M229.517,88.277H8.828C3.953,88.277,0,92.229,0,97.104v162.97c0,4.875,3.953,8.828,8.828,8.828h220.69c4.875,0,8.828-3.953,8.828-8.828V97.104C238.345,92.229,234.392,88.277,229.517,88.277z" />
    <g>
      <path style="fill:#F5F5F5;" d="M24.789,108.538l1.954,5.86l6.177,0.047c0.8,0.007,1.131,1.027,0.488,1.502l-4.969,3.67l1.864,5.889c0.242,0.762-0.627,1.394-1.278,0.928L24,122.843l-5.025,3.592c-0.651,0.465-1.518-0.166-1.278-0.928l1.864-5.889l-4.969-3.67c-0.643-0.476-0.312-1.495,0.488-1.502l6.177-0.047l1.954-5.86C23.463,107.779,24.535,107.779,24.789,108.538z" />
      <path style="fill:#F5F5F5;" d="M24.789,139.192l1.954,5.86l6.177,0.047c0.8,0.007,1.131,1.027,0.488,1.502l-4.969,3.67l1.864,5.889c0.242,0.762-0.627,1.394-1.278,0.928L24,153.497l-5.025,3.592c-0.651,0.465-1.518-0.166-1.278-0.928l1.864-5.889l-4.969-3.67c-0.643-0.476-0.312-1.495,0.488-1.502l6.177-0.047l1.954-5.86C23.463,138.434,24.535,138.434,24.789,139.192z" />
      <path style="fill:#F5F5F5;" d="M24.789,169.846l1.954,5.86l6.177,0.047c0.8,0.007,1.131,1.027,0.488,1.502l-4.969,3.67l1.864,5.889c0.242,0.762-0.627,1.394-1.278,0.928L24,184.151l-5.025,3.592c-0.651,0.465-1.518-0.166-1.278-0.928l1.864-5.889l-4.969-3.67c-0.643-0.476-0.312-1.495,0.488-1.502l6.177-0.047l1.954-5.86C23.463,169.088,24.535,169.088,24.789,169.846z" />
      <path style="fill:#F5F5F5;" d="M24.789,200.501l1.954,5.86l6.177,0.047c0.8,0.007,1.131,1.027,0.488,1.502l-4.969,3.67l1.864,5.889c0.242,0.762-0.627,1.394-1.278,0.928L24,214.806l-5.025,3.592c-0.651,0.465-1.518-0.166-1.278-0.928l1.864-5.889l-4.969-3.67c-0.643-0.476-0.312-1.495,0.488-1.502l6.177-0.047l1.954-5.86C23.463,199.742,24.535,199.742,24.789,200.501z" />
      <path style="fill:#F5F5F5;" d="M24.789,231.155l1.954,5.86l6.177,0.047c0.8,0.007,1.131,1.027,0.488,1.502l-4.969,3.67l1.864,5.889c0.242,0.762-0.627,1.394-1.278,0.928L24,245.46l-5.025,3.592c-0.651,0.465-1.518-0.166-1.278-0.928l1.864-5.889l-4.969-3.67c-0.643-0.476-0.312-1.495,0.488-1.502l6.177-0.047l1.954-5.86C23.463,230.395,24.535,230.395,24.789,231.155z" />
      <path style="fill:#F5F5F5;" d="M48.582,123.567l1.954,5.86l6.177,0.047c0.8,0.007,1.131,1.027,0.488,1.502l-4.969,3.67l1.864,5.889c0.242,0.762-0.627,1.394-1.278,0.928l-5.025-3.592l-5.025,3.592c-0.651,0.465-1.518-0.166-1.278-0.928l1.864-5.889l-4.969-3.67c-0.643-0.476-0.312-1.495,0.488-1.502l6.177-0.047l1.954-5.86C47.255,122.809,48.329,122.809,48.582,123.567z" />
      <path style="fill:#F5F5F5;" d="M48.582,154.222l1.954,5.86l6.177,0.047c0.8,0.007,1.131,1.027,0.488,1.502l-4.969,3.67l1.864,5.889c0.242,0.762-0.627,1.394-1.278,0.928l-5.025-3.592l-5.025,3.592c-0.651,0.465-1.518-0.165-1.278-0.928l1.864-5.889l-4.969-3.67c-0.643-0.476-0.312-1.495,0.488-1.502l6.177-0.047l1.954-5.86C47.255,153.463,48.329,153.463,48.582,154.222z" />
      <path style="fill:#F5F5F5;" d="M48.582,184.876l1.954,5.86l6.177,0.047c0.8,0.007,1.131,1.027,0.488,1.502l-4.969,3.67l1.864,5.889c0.242,0.762-0.627,1.394-1.278,0.928l-5.025-3.592l-5.025,3.592c-0.651,0.465-1.518-0.166-1.278-0.928l1.864-5.889l-4.969-3.67c-0.643-0.476-0.312-1.495,0.488-1.502l6.177-0.047l1.954-5.86C47.255,184.117,48.329,184.117,48.582,184.876z" />
      <path style="fill:#F5F5F5;" d="M48.582,215.53l1.954,5.86l6.177,0.047c0.8,0.007,1.131,1.027,0.488,1.502l-4.969,3.67l1.864,5.889c0.242,0.762-0.627,1.394-1.278,0.928l-5.025-3.592l-5.025,3.592c-0.651,0.465-1.518-0.166-1.278-0.928l1.864-5.889l-4.969-3.67c-0.643-0.476-0.312-1.495,0.488-1.502l6.177-0.047l1.954-5.86C47.255,214.772,48.329,214.772,48.582,215.53z" />
      <path style="fill:#F5F5F5;" d="M72.375,108.538l1.954,5.86l6.177,0.047c0.8,0.007,1.131,1.027,0.488,1.502l-4.969,3.67l1.864,5.889c0.242,0.762-0.627,1.394-1.278,0.928l-5.025-3.592l-5.025,3.592c-0.651,0.465-1.518-0.166-1.278-0.928l1.864-5.889l-4.969-3.67c-0.643-0.476-0.312-1.495,0.488-1.502l6.177-0.047l1.954-5.86C71.049,107.779,72.122,107.779,72.375,108.538z" />
      <path style="fill:#F5F5F5;" d="M72.375,139.192l1.954,5.86l6.177,0.047c0.8,0.007,1.131,1.027,0.488,1.502l-4.969,3.67l1.864,5.889c0.242,0.762-0.627,1.394-1.278,0.928l-5.025-3.592l-5.025,3.592c-0.651,0.465-1.518-0.166-1.278-0.928l1.864-5.889l-4.969-3.67c-0.643-0.476-0.312-1.495,0.488-1.502l6.177-0.047l1.954-5.86C71.049,138.434,72.122,138.434,72.375,139.192z" />
      <path style="fill:#F5F5F5;" d="M72.375,169.846l1.954,5.86l6.177,0.047c0.8,0.007,1.131,1.027,0.488,1.502l-4.969,3.67l1.864,5.889c0.242,0.762-0.627,1.394-1.278,0.928l-5.025-3.592l-5.025,3.592c-0.651,0.465-1.518-0.166-1.278-0.928l1.864-5.889l-4.969-3.67c-0.643-0.476-0.312-1.495,0.488-1.502l6.177-0.047l1.954-5.86C71.049,169.088,72.122,169.088,72.375,169.846z" />
      <path style="fill:#F5F5F5;" d="M72.375,200.501l1.954,5.86l6.177,0.047c0.8,0.007,1.131,1.027,0.488,1.502l-4.969,3.67l1.864,5.889c0.242,0.762-0.627,1.394-1.278,0.928l-5.025-3.592l-5.025,3.592c-0.651,0.465-1.518-0.166-1.278-0.928l1.864-5.889l-4.969-3.67c-0.643-0.476-0.312-1.495,0.488-1.502l6.177-0.047l1.954-5.86C71.049,199.742,72.122,199.742,72.375,200.501z" />
      <path style="fill:#F5F5F5;" d="M72.375,231.155l1.954,5.86l6.177,0.047c0.8,0.007,1.131,1.027,0.488,1.502l-4.969,3.67l1.864,5.889c0.242,0.762-0.627,1.394-1.278,0.928l-5.025-3.592l-5.025,3.592c-0.651,0.465-1.518-0.166-1.278-0.928l1.864-5.889l-4.969-3.67c-0.643-0.476-0.312-1.495,0.488-1.502l6.177-0.047l1.954-5.86C71.049,230.395,72.122,230.395,72.375,231.155z" />
      <path style="fill:#F5F5F5;" d="M96.169,123.567l1.954,5.86l6.177,0.047c0.8,0.007,1.131,1.027,0.488,1.502l-4.969,3.67l1.864,5.889c0.242,0.762-0.627,1.394-1.278,0.928l-5.025-3.592l-5.025,3.592c-0.651,0.465-1.518-0.166-1.278-0.928l1.864-5.889l-4.969-3.67c-0.643-0.476-0.312-1.495,0.488-1.502l6.177-0.047l1.954-5.86C94.842,122.809,95.916,122.809,96.169,123.567z" />
      <path style="fill:#F5F5F5;" d="M96.169,154.222l1.954,5.86l6.177,0.047c0.8,0.007,1.131,1.027,0.488,1.502l-4.969,3.67l1.864,5.889c0.242,0.762-0.627,1.394-1.278,0.928l-5.025-3.592l-5.025,3.592c-0.651,0.465-1.518-0.165-1.278-0.928l1.864-5.889l-4.969-3.67c-0.643-0.476-0.312-1.495,0.488-1.502l6.177-0.047l1.954-5.86C94.842,153.463,95.916,153.463,96.169,154.222z" />
      <path style="fill:#F5F5F5;" d="M96.169,184.876l1.954,5.86l6.177,0.047c0.8,0.007,1.131,1.027,0.488,1.502l-4.969,3.67l1.864,5.889c0.242,0.762-0.627,1.394-1.278,0.928l-5.025-3.592l-5.025,3.592c-0.651,0.465-1.518-0.166-1.278-0.928l1.864-5.889l-4.969-3.67c-0.643-0.476-0.312-1.495,0.488-1.502l6.177-0.047l1.954-5.86C94.842,184.117,95.916,184.117,96.169,184.876z" />
      <path style="fill:#F5F5F5;" d="M96.169,215.53l1.954,5.86l6.177,0.047c0.8,0.007,1.131,1.027,0.488,1.502l-4.969,3.67l1.864,5.889c0.242,0.762-0.627,1.394-1.278,0.928l-5.025-3.592l-5.025,3.592c-0.651,0.465-1.518-0.166-1.278-0.928l1.864-5.889l-4.969-3.67c-0.643-0.476-0.312-1.495,0.488-1.502l6.177-0.047l1.954-5.86C94.842,214.772,95.916,214.772,96.169,215.53z" />
      <path style="fill:#F5F5F5;" d="M119.962,108.538l1.954,5.86l6.177,0.047c0.8,0.007,1.131,1.027,0.488,1.502l-4.969,3.67l1.864,5.889c0.242,0.762-0.627,1.394-1.278,0.928l-5.026-3.592l-5.025,3.592c-0.651,0.465-1.518-0.166-1.278-0.928l1.864-5.889l-4.969-3.67c-0.643-0.476-0.312-1.495,0.488-1.502l6.177-0.047l1.954-5.86C118.636,107.779,119.709,107.779,119.962,108.538z" />
      <path style="fill:#F5F5F5;" d="M119.962,139.192l1.954,5.86l6.177,0.047c0.8,0.007,1.131,1.027,0.488,1.502l-4.969,3.67l1.864,5.889c0.242,0.762-0.627,1.394-1.278,0.928l-5.026-3.592l-5.025,3.592c-0.651,0.465-1.518-0.166-1.278-0.928l1.864-5.889l-4.969-3.67c-0.643-0.476-0.312-1.495,0.488-1.502l6.177-0.047l1.954-5.86C118.636,138.434,119.709,138.434,119.962,139.192z" />
      <path style="fill:#F5F5F5;" d="M119.962,169.846l1.954,5.86l6.177,0.047c0.8,0.007,1.131,1.027,0.488,1.502l-4.969,3.67l1.864,5.889c0.242,0.762-0.627,1.394-1.278,0.928l-5.026-3.592l-5.025,3.592c-0.651,0.465-1.518-0.166-1.278-0.928l1.864-5.889l-4.969-3.67c-0.643-0.476-0.312-1.495,0.488-1.502l6.177-0.047l1.954-5.86C118.636,169.088,119.709,169.088,119.962,169.846z" />
      <path style="fill:#F5F5F5;" d="M119.962,200.501l1.954,5.86l6.177,0.047c0.8,0.007,1.131,1.027,0.488,1.502l-4.969,3.67l1.864,5.889c0.242,0.762-0.627,1.394-1.278,0.928l-5.026-3.592l-5.025,3.592c-0.651,0.465-1.518-0.166-1.278-0.928l1.864-5.889l-4.969-3.67c-0.643-0.476-0.312-1.495,0.488-1.502l6.177-0.047l1.954-5.86C118.636,199.742,119.709,199.742,119.962,200.501z" />
      <path style="fill:#F5F5F5;" d="M119.962,231.155l1.954,5.86l6.177,0.047c0.8,0.007,1.131,1.027,0.488,1.502l-4.969,3.67l1.864,5.889c0.242,0.762-0.627,1.394-1.278,0.928l-5.026-3.592l-5.025,3.592c-0.651,0.465-1.518-0.166-1.278-0.928l1.864-5.889l-4.969-3.67c-0.643-0.476-0.312-1.495,0.488-1.502l6.177-0.047l1.954-5.86C118.636,230.395,119.709,230.395,119.962,231.155z" />
      <path style="fill:#F5F5F5;" d="M143.755,123.567l1.954,5.86l6.177,0.047c0.8,0.007,1.131,1.027,0.488,1.502l-4.969,3.67l1.864,5.889c0.242,0.762-0.627,1.394-1.278,0.928l-5.025-3.592l-5.025,3.592c-0.651,0.465-1.518-0.166-1.278-0.928l1.864-5.889l-4.969-3.67c-0.643-0.476-0.312-1.495,0.488-1.502l6.177-0.047l1.954-5.86C142.43,122.809,143.502,122.809,143.755,123.567z" />
      <path style="fill:#F5F5F5;" d="M143.755,154.222l1.954,5.86l6.177,0.047c0.8,0.007,1.131,1.027,0.488,1.502l-4.969,3.67l1.864,5.889c0.242,0.762-0.627,1.394-1.278,0.928l-5.025-3.592l-5.025,3.592c-0.651,0.465-1.518-0.165-1.278-0.928l1.864-5.889l-4.969-3.67c-0.643-0.476-0.312-1.495,0.488-1.502l6.177-0.047l1.954-5.86C142.43,153.463,143.502,153.463,143.755,154.222z" />
      <path style="fill:#F5F5F5;" d="M143.755,184.876l1.954,5.86l6.177,0.047c0.8,0.007,1.131,1.027,0.488,1.502l-4.969,3.67l1.864,5.889c0.242,0.762-0.627,1.394-1.278,0.928l-5.025-3.592l-5.025,3.592c-0.651,0.465-1.518-0.166-1.278-0.928l1.864-5.889l-4.969-3.67c-0.643-0.476-0.312-1.495,0.488-1.502l6.177-0.047l1.954-5.86C142.43,184.117,143.502,184.117,143.755,184.876z" />
      <path style="fill:#F5F5F5;" d="M143.755,215.53l1.954,5.86l6.177,0.047c0.8,0.007,1.131,1.027,0.488,1.502l-4.969,3.67l1.864,5.889c0.242,0.762-0.627,1.394-1.278,0.928l-5.025-3.592l-5.025,3.592c-0.651,0.465-1.518-0.166-1.278-0.928l1.864-5.889l-4.969-3.67c-0.643-0.476-0.312-1.495,0.488-1.502l6.177-0.047l1.954-5.86C142.43,214.772,143.502,214.772,143.755,215.53z" />
      <path style="fill:#F5F5F5;" d="M167.549,108.538l1.954,5.86l6.177,0.047c0.8,0.007,1.131,1.027,0.488,1.502l-4.969,3.67l1.864,5.889c0.242,0.762-0.627,1.394-1.278,0.928l-5.025-3.592l-5.025,3.592c-0.651,0.465-1.518-0.166-1.278-0.928l1.864-5.889l-4.969-3.67c-0.643-0.476-0.312-1.495,0.488-1.502l6.177-0.047l1.954-5.86C166.222,107.779,167.296,107.779,167.549,108.538z" />
      <path style="fill:#F5F5F5;" d="M167.549,139.192l1.954,5.86l6.177,0.047c0.8,0.007,1.131,1.027,0.488,1.502l-4.969,3.67l1.864,5.889c0.242,0.762-0.627,1.394-1.278,0.928l-5.025-3.592l-5.025,3.592c-0.651,0.465-1.518-0.166-1.278-0.928l1.864-5.889l-4.969-3.67c-0.643-0.476-0.312-1.495,0.488-1.502l6.177-0.047l1.954-5.86C166.222,138.434,167.296,138.434,167.549,139.192z" />
      <path style="fill:#F5F5F5;" d="M167.549,169.846l1.954,5.86l6.177,0.047c0.8,0.007,1.131,1.027,0.488,1.502l-4.969,3.67l1.864,5.889c0.242,0.762-0.627,1.394-1.278,0.928l-5.025-3.592l-5.025,3.592c-0.651,0.465-1.518-0.166-1.278-0.928l1.864-5.889l-4.969-3.67c-0.643-0.476-0.312-1.495,0.488-1.502l6.177-0.047l1.954-5.86C166.222,169.088,167.296,169.088,167.549,169.846z" />
      <path style="fill:#F5F5F5;" d="M167.549,200.501l1.954,5.86l6.177,0.047c0.8,0.007,1.131,1.027,0.488,1.502l-4.969,3.67l1.864,5.889c0.242,0.762-0.627,1.394-1.278,0.928l-5.025-3.592l-5.025,3.592c-0.651,0.465-1.518-0.166-1.278-0.928l1.864-5.889l-4.969-3.67c-0.643-0.476-0.312-1.495,0.488-1.502l6.177-0.047l1.954-5.86C166.222,199.742,167.296,199.742,167.549,200.501z" />
      <path style="fill:#F5F5F5;" d="M167.549,231.155l1.954,5.86l6.177,0.047c0.8,0.007,1.131,1.027,0.488,1.502l-4.969,3.67l1.864,5.889c0.242,0.762-0.627,1.394-1.278,0.928l-5.025-3.592l-5.025,3.592c-0.651,0.465-1.518-0.166-1.278-0.928l1.864-5.889l-4.969-3.67c-0.643-0.476-0.312-1.495,0.488-1.502l6.177-0.047l1.954-5.86C166.222,230.395,167.296,230.395,167.549,231.155z" />
      <path style="fill:#F5F5F5;" d="M191.342,123.567l1.954,5.86l6.177,0.047c0.8,0.007,1.131,1.027,0.488,1.502l-4.969,3.67l1.864,5.889c0.242,0.762-0.627,1.394-1.278,0.928l-5.025-3.592l-5.025,3.592c-0.651,0.465-1.518-0.166-1.278-0.928l1.864-5.889l-4.969-3.67c-0.643-0.476-0.312-1.495,0.488-1.502l6.177-0.047l1.954-5.86C190.016,122.809,191.09,122.809,191.342,123.567z" />
      <path style="fill:#F5F5F5;" d="M191.342,154.222l1.954,5.86l6.177,0.047c0.8,0.007,1.131,1.027,0.488,1.502l-4.969,3.67l1.864,5.889c0.242,0.762-0.627,1.394-1.278,0.928l-5.025-3.592l-5.025,3.592c-0.651,0.465-1.518-0.165-1.278-0.928l1.864-5.889l-4.969-3.67c-0.643-0.476-0.312-1.495,0.488-1.502l6.177-0.047l1.954-5.86C190.016,153.463,191.09,153.463,191.342,154.222z" />
      <path style="fill:#F5F5F5;" d="M191.342,184.876l1.954,5.86l6.177,0.047c0.8,0.007,1.131,1.027,0.488,1.502l-4.969,3.67l1.864,5.889c0.242,0.762-0.627,1.394-1.278,0.928l-5.025-3.592l-5.025,3.592c-0.651,0.465-1.518-0.166-1.278-0.928l1.864-5.889l-4.969-3.67c-0.643-0.476-0.312-1.495,0.488-1.502l6.177-0.047l1.954-5.86C190.016,184.117,191.09,184.117,191.342,184.876z" />
      <path style="fill:#F5F5F5;" d="M191.342,215.53l1.954,5.86l6.177,0.047c0.8,0.007,1.131,1.027,0.488,1.502l-4.969,3.67l1.864,5.889c0.242,0.762-0.627,1.394-1.278,0.928l-5.025-3.592l-5.025,3.592c-0.651,0.465-1.518-0.166-1.278-0.928l1.864-5.889l-4.969-3.67c-0.643-0.476-0.312-1.495,0.488-1.502l6.177-0.047l1.954-5.86C190.016,214.772,191.09,214.772,191.342,215.53z" />
      <path style="fill:#F5F5F5;" d="M215.136,108.538l1.954,5.86l6.177,0.047c0.8,0.007,1.131,1.027,0.488,1.502l-4.969,3.67l1.864,5.889c0.242,0.762-0.627,1.394-1.278,0.928l-5.025-3.592l-5.025,3.592c-0.651,0.465-1.518-0.166-1.278-0.928l1.864-5.889l-4.969-3.67c-0.643-0.476-0.312-1.495,0.488-1.502l6.177-0.047l1.954-5.86C213.81,107.779,214.882,107.779,215.136,108.538z" />
      <path style="fill:#F5F5F5;" d="M215.136,139.192l1.954,5.86l6.177,0.047c0.8,0.007,1.131,1.027,0.488,1.502l-4.969,3.67l1.864,5.889c0.242,0.762-0.627,1.394-1.278,0.928l-5.025-3.592l-5.025,3.592c-0.651,0.465-1.518-0.166-1.278-0.928l1.864-5.889l-4.969-3.67c-0.643-0.476-0.312-1.495,0.488-1.502l6.177-0.047l1.954-5.86C213.81,138.434,214.882,138.434,215.136,139.192z" />
      <path style="fill:#F5F5F5;" d="M215.136,169.846l1.954,5.86l6.177,0.047c0.8,0.007,1.131,1.027,0.488,1.502l-4.969,3.67l1.864,5.889c0.242,0.762-0.627,1.394-1.278,0.928l-5.025-3.592l-5.025,3.592c-0.651,0.465-1.518-0.166-1.278-0.928l1.864-5.889l-4.969-3.67c-0.643-0.476-0.312-1.495,0.488-1.502l6.177-0.047l1.954-5.86C213.81,169.088,214.882,169.088,215.136,169.846z" />
      <path style="fill:#F5F5F5;" d="M215.136,200.501l1.954,5.86l6.177,0.047c0.8,0.007,1.131,1.027,0.488,1.502l-4.969,3.67l1.864,5.889c0.242,0.762-0.627,1.394-1.278,0.928l-5.025-3.592l-5.025,3.592c-0.651,0.465-1.518-0.166-1.278-0.928l1.864-5.889l-4.969-3.67c-0.643-0.476-0.312-1.495,0.488-1.502l6.177-0.047l1.954-5.86C213.81,199.742,214.882,199.742,215.136,200.501z" />
      <path style="fill:#F5F5F5;" d="M215.136,231.155l1.954,5.86l6.177,0.047c0.8,0.007,1.131,1.027,0.488,1.502l-4.969,3.67l1.864,5.889c0.242,0.762-0.627,1.394-1.278,0.928l-5.025-3.592l-5.025,3.592c-0.651,0.465-1.518-0.166-1.278-0.928l1.864-5.889l-4.969-3.67c-0.643-0.476-0.312-1.495,0.488-1.502l6.177-0.047l1.954-5.86C213.81,230.395,214.882,230.395,215.136,231.155z" />
    </g>
  </symbol>

  <symbol viewBox="0 0 512.001 512.001" id="de">
    <path d="M512 200.093H0V97.104a8.829 8.829 0 018.828-8.828h494.345a8.829 8.829 0 018.828 8.828L512 200.093z" fill="#464655"/>
    <path d="M503.172 423.725H8.828A8.829 8.829 0 010 414.897V311.909h512v102.988a8.828 8.828 0 01-8.828 8.828z" fill="#ffe15a"/>
    <path fill="#ff4b55" d="M0 200.091h512v111.81H0z"/>
  </symbol>

  <symbol viewBox="0 0 512.001 512.001" id="es">
    <path d="M8.828 423.725h494.345a8.829 8.829 0 008.828-8.828V97.104a8.829 8.829 0 00-8.828-8.828H8.828A8.83 8.83 0 000 97.104v317.793a8.828 8.828 0 008.828 8.828z" fill="#c8414b"/>
    <path fill="#ffd250" d="M0 158.901h512v194.21H0z"/>
    <path d="M216.276 256.001l7.485-33.681c.69-3.102-1.671-6.044-4.849-6.044h-5.272c-3.177 0-5.537 2.942-4.849 6.044l7.485 33.681z" fill="#c8414b"/>
    <path fill="#f5f5f5" d="M207.45 238.341h17.655v75.03H207.45z"/>
    <path fill="#fab446" d="M203.03 229.521h26.483v8.828H203.03z"/>
    <g fill="#c8414b">
      <path d="M185.38 256.001h44.14v8.828h-44.14zM229.517 291.311l-26.483-8.827v-8.828l26.483 8.828zM83.862 256.001l7.485-33.681c.69-3.102-1.671-6.044-4.849-6.044h-5.272c-3.177 0-5.537 2.942-4.849 6.044l7.485 33.681z"/>
    </g>
    <path d="M114.759 229.518a8.829 8.829 0 00-8.828 8.828v57.379c0 10.725 10.01 30.897 44.138 30.897s44.138-20.171 44.138-30.897v-57.379a8.829 8.829 0 00-8.828-8.828h-70.62z" fill="#f5f5f5"/>
    <g fill="#c8414b">
      <path d="M150.069 273.656h-44.138v-35.31a8.829 8.829 0 018.828-8.828h35.31v44.138zM150.069 273.656h44.138v22.069c0 12.189-9.88 22.069-22.069 22.069-12.189 0-22.069-9.88-22.069-22.069v-22.069z"/>
    </g>
    <path d="M105.931 273.656h44.138v22.069c0 12.189-9.88 22.069-22.069 22.069-12.189 0-22.069-9.88-22.069-22.069v-22.069z" fill="#fab446"/>
    <g fill="#c8414b">
      <path d="M141.241 313.281v-39.625h-8.828v43.693c3.284-.666 6.251-2.12 8.828-4.068zM123.586 317.349v-43.693h-8.828v39.625c2.578 1.948 5.545 3.402 8.828 4.068z"/>
    </g>
    <path fill="#ffb441" d="M114.76 256.001h26.483v8.828H114.76z"/>
    <g fill="#fab446">
      <path d="M114.76 238.341h26.483v8.828H114.76z"/>
      <path d="M119.17 243.591h17.655v15.992H119.17z"/>
    </g>
    <path fill="#f5f5f5" d="M75.03 238.341h17.655v75.03H75.03z"/>
    <g fill="#fab446">
      <path d="M70.62 308.971h26.483v8.828H70.62zM70.62 229.521h26.483v8.828H70.62z"/>
    </g>
    <path fill="#5064aa" d="M66.21 317.791h35.31v8.828H66.21z"/>
    <path fill="#fab446" d="M207.45 308.971h26.483v8.828H207.45z"/>
    <path fill="#5064aa" d="M198.62 317.791h35.31v8.828h-35.31z"/>
    <path fill="#fab446" d="M123.59 220.691h52.966v8.828H123.59z"/>
    <path fill="#ffb441" d="M145.66 194.211h8.828v26.483h-8.828z"/>
    <g fill="#f5f5f5">
      <path d="M141.241 207.449c-7.302 0-13.241-5.94-13.241-13.241 0-7.302 5.94-13.241 13.241-13.241 7.302 0 13.241 5.94 13.241 13.241.001 7.301-5.939 13.241-13.241 13.241zm0-17.655a4.417 4.417 0 00-4.414 4.414c0 2.435 1.978 4.414 4.414 4.414s4.414-1.978 4.414-4.414a4.417 4.417 0 00-4.414-4.414z"/>
      <path d="M158.897 207.449c-7.302 0-13.241-5.94-13.241-13.241 0-7.302 5.94-13.241 13.241-13.241 7.302 0 13.241 5.94 13.241 13.241s-5.94 13.241-13.241 13.241zm0-17.655a4.417 4.417 0 00-4.414 4.414 4.417 4.417 0 004.414 4.414 4.417 4.417 0 004.414-4.414 4.418 4.418 0 00-4.414-4.414z"/>
      <path d="M176.552 216.277c-7.302 0-13.241-5.94-13.241-13.241 0-7.302 5.94-13.241 13.241-13.241 7.302 0 13.241 5.94 13.241 13.241s-5.94 13.241-13.241 13.241zm0-17.655a4.417 4.417 0 00-4.414 4.414 4.417 4.417 0 004.414 4.414c2.435 0 4.414-1.978 4.414-4.414s-1.979-4.414-4.414-4.414zM123.586 216.277c-7.302 0-13.241-5.94-13.241-13.241 0-7.302 5.94-13.241 13.241-13.241 7.302 0 13.241 5.94 13.241 13.241.001 7.301-5.939 13.241-13.241 13.241zm0-17.655a4.417 4.417 0 00-4.414 4.414c0 2.435 1.978 4.414 4.414 4.414s4.414-1.979 4.414-4.415a4.416 4.416 0 00-4.414-4.413z"/>
    </g>
    <path d="M176.552 291.311v4.414c0 2.434-1.98 4.414-4.414 4.414s-4.414-1.98-4.414-4.414v-4.414h8.828m8.827-8.827h-26.483v13.241c0 7.302 5.94 13.241 13.241 13.241 7.302 0 13.241-5.94 13.241-13.241v-13.241h.001z" fill="#fab446"/>
    <path d="M172.138 264.829a8.829 8.829 0 01-8.828-8.828v-8.828a8.829 8.829 0 0117.656 0v8.828a8.829 8.829 0 01-8.828 8.828z" fill="#ffa0d2"/>
    <circle cx="150.07" cy="273.651" r="13.241" fill="#5064aa"/>
    <path fill="#fab446" d="M145.66 176.551h8.828v26.483h-8.828z"/>
    <path d="M123.586 220.691l-8.828-8.828 5.171-5.171a42.627 42.627 0 0160.28 0l5.171 5.171-8.828 8.828h-52.966z" fill="#c8414b"/>
    <g fill="#ffd250">
      <circle cx="150.07" cy="211.861" r="4.414"/>
      <circle cx="132.41" cy="211.861" r="4.414"/>
      <circle cx="167.72" cy="211.861" r="4.414"/>
    </g>
    <g fill="#c8414b">
      <path d="M70.62 256.001h44.14v8.828H70.62zM70.621 291.311l26.482-8.827v-8.828l-26.482 8.828z"/>
    </g>
  </symbol>

  <symbol viewBox="0 0 512 512" id="fr">
    <path d="M170.667 423.721H8.828A8.829 8.829 0 010 414.893V97.1a8.829 8.829 0 018.828-8.828h161.839v335.449z" fill="#41479b"/>
    <path fill="#f5f5f5" d="M170.67 88.277h170.67v335.45H170.67z"/>
    <path d="M503.172 423.721H341.333V88.273h161.839A8.829 8.829 0 01512 97.101v317.793a8.827 8.827 0 01-8.828 8.827z" fill="#ff4b55"/>
  </symbol>

  <symbol viewBox="0 0 512 512" id="it">
    <path d="M170.667 423.721H8.828A8.829 8.829 0 010 414.893V97.1a8.829 8.829 0 018.828-8.828h161.839v335.449z" fill="#73af00"/>
    <path fill="#f5f5f5" d="M170.67 88.277h170.67v335.45H170.67z"/>
    <path d="M503.172 423.721H341.333V88.273h161.839A8.829 8.829 0 01512 97.101v317.793a8.827 8.827 0 01-8.828 8.827z" fill="#ff4b55"/>
  </symbol>

  <symbol viewBox="0 0 512.001 512.001" id="pl">
    <path d="M0 256h512v158.897a8.829 8.829 0 01-8.828 8.828H8.828A8.829 8.829 0 010 414.897V256z" fill="#ff4b55"/>
    <path d="M512 256H0V97.103a8.829 8.829 0 018.828-8.828h494.345a8.829 8.829 0 018.828 8.828L512 256z" fill="#f5f5f5"/>
  </symbol>

  <symbol viewBox="0 0 512.001 512.001" id="pt">
    <path d="M503.172 423.725H8.828A8.829 8.829 0 010 414.897V97.104a8.829 8.829 0 018.828-8.828h494.345a8.829 8.829 0 018.828 8.828v317.793a8.83 8.83 0 01-8.829 8.828z" fill="#ff4b55"/>
    <path d="M185.379 88.277H8.828A8.828 8.828 0 000 97.104v317.793a8.829 8.829 0 008.828 8.828H185.38V88.277h-.001z" fill="#73af00"/>
    <circle cx="185.45" cy="256.001" r="79.38" fill="#ffe15a"/>
    <path d="M211.932 229.518v35.31c0 14.603-11.88 26.483-26.483 26.483s-26.483-11.88-26.483-26.483v-35.31h52.966m8.827-17.655h-70.621a8.829 8.829 0 00-8.828 8.828v44.138c0 24.376 19.762 44.138 44.138 44.138s44.138-19.762 44.138-44.138v-44.138a8.827 8.827 0 00-8.827-8.828z" fill="#ff4b55"/>
    <path d="M211.932 229.518v35.31c0 14.603-11.88 26.483-26.483 26.483s-26.483-11.88-26.483-26.483v-35.31h52.966" fill="#f5f5f5"/>
    <g fill="#ffe15a">
      <circle cx="150.07" cy="220.691" r="4.414"/>
      <circle cx="220.69" cy="220.691" r="4.414"/>
      <circle cx="150.07" cy="256.001" r="4.414"/>
      <circle cx="220.69" cy="256.001" r="4.414"/>
      <circle cx="185.38" cy="220.691" r="4.414"/>
      <circle cx="211.88" cy="288.551" r="4.414"/>
      <circle cx="159.4" cy="288.551" r="4.414"/>
    </g>
    <g fill="#41479b">
      <path d="M191.149 253.763v7.602c0 3.144-2.558 5.702-5.702 5.702s-5.702-2.558-5.702-5.702v-7.602h11.404M191.149 235.741v7.602c0 3.144-2.558 5.702-5.702 5.702s-5.702-2.558-5.702-5.702v-7.602h11.404M191.149 271.97v7.602c0 3.144-2.558 5.702-5.702 5.702s-5.702-2.558-5.702-5.702v-7.602h11.404M206.506 253.763v7.602c0 3.144-2.558 5.702-5.702 5.702s-5.702-2.558-5.702-5.702v-7.602h11.404M175.794 253.763v7.602c0 3.144-2.558 5.702-5.702 5.702s-5.702-2.558-5.702-5.702v-7.602h11.404"/>
    </g>
  </symbol>

  <symbol viewBox="0 0 512.001 512.001" id="tr">
    <path d="M503.172 423.725H8.828A8.829 8.829 0 010 414.897V97.104a8.829 8.829 0 018.828-8.828h494.345a8.829 8.829 0 018.828 8.828v317.793a8.83 8.83 0 01-8.829 8.828z" fill="#ff4b55"/>
    <g fill="#f5f5f5">
      <path d="M253.474 225.753l13.837 18.101 21.606-7.232c1.208-.404 2.236.962 1.512 2.01l-12.939 18.753 13.555 18.314c.758 1.024-.224 2.423-1.444 2.059l-21.834-6.511-13.228 18.55c-.739 1.037-2.375.536-2.406-.737l-.555-22.777-21.73-6.849c-1.215-.383-1.244-2.092-.042-2.515l21.491-7.566-.202-22.783c-.012-1.274 1.606-1.829 2.379-.817zM176.956 326.662c-38.995 0-70.627-31.633-70.627-70.663 0-38.958 31.633-70.662 70.627-70.662 14.508 0 27.887 4.462 39.037 12.014 1.707 1.156 3.656-1.087 2.227-2.573-16.664-17.325-40.248-27.894-66.398-27.001-44.926 1.533-82.118 37.553-84.989 82.413-3.287 51.383 37.399 94.086 88.055 94.086 24.953 0 47.379-10.432 63.393-27.112 1.415-1.473-.538-3.683-2.229-2.537-11.162 7.569-24.563 12.035-39.096 12.035z"/>
    </g>
  </symbol>

  <symbol viewBox="0 0 512 512" id="cs">
    <path style="fill:#41479B;" d="M3.256,421.59L256,256L3.256,90.41C1.311,92.029,0,94.375,0,97.103v317.793C0,417.625,1.311,419.971,3.256,421.59z"/>
    <path style="fill:#FF4B55;" d="M3.256,421.59c1.53,1.274,3.425,2.134,5.571,2.134h494.345c4.875,0,8.828-3.953,8.828-8.828V256H256L3.256,421.59z"/>
    <path style="fill:#F5F5F5;" d="M3.256,90.41c1.53-1.274,3.425-2.134,5.571-2.134h494.345c4.875,0,8.828,3.953,8.828,8.828V256H256L3.256,90.41z"/>
  </symbol>

  <symbol viewBox="0 0 512.001 512.001" id="nl">
    <path style="fill:#FF4B55;" d="M512,200.093H0V97.104c0-4.875,3.953-8.828,8.828-8.828h494.345c4.875,0,8.828,3.953,8.828,8.828L512,200.093L512,200.093z"/>
    <path style="fill:#41479B;" d="M503.172,423.725H8.828c-4.875,0-8.828-3.953-8.828-8.828V311.909h512v102.988C512,419.773,508.047,423.725,503.172,423.725z"/>
    <rect y="200.091" style="fill:#F5F5F5;" width="512" height="111.81"/>
  </symbol>

  <symbol viewBox="0 0 512.001 512.001" id="id">
    <path style="fill:#C8414B;" d="M512,256H0V97.103c0-4.875,3.953-8.828,8.828-8.828h494.345c4.875,0,8.828,3.953,8.828,8.828L512,256L512,256z"/>
    <path style="fill:#F5F5F5;" d="M0,256h512v158.897c0,4.875-3.953,8.828-8.828,8.828H8.828c-4.875,0-8.828-3.953-8.828-8.828V256z"/>
  </symbol>

  <symbol viewBox="0 0 512.001 512.001" id="el">
    <rect y="125.551" style="fill:#F5F5F5;" width="512" height="37.27"/>
    <rect y="200.091" style="fill:#F5F5F5;" width="512" height="37.27"/>
    <rect y="274.641" style="fill:#F5F5F5;" width="512" height="37.27"/>
    <rect y="311.911" style="fill:#41479B;" width="512" height="37.27"/>
    <rect y="349.181" style="fill:#F5F5F5;" width="512" height="37.27"/>
    <path style="fill:#41479B;" d="M8.828,423.725h494.345c4.875,0,8.828-3.953,8.828-8.828v-28.445H0v28.445C0,419.773,3.953,423.725,8.828,423.725z"/>
    <path style="fill:#41479B;" d="M512,125.549V97.104c0-4.875-3.953-8.828-8.828-8.828H8.828C3.953,88.277,0,92.229,0,97.104v65.717v37.271v74.545h512v-37.272H176.552v-37.272H512v-37.272H176.552v-37.272C176.552,125.549,512,125.549,512,125.549z"/>
    <polygon style="fill:#F5F5F5;" points="176.552,162.821 106.912,162.821 106.912,88.277 69.64,88.277 69.64,162.821 0,162.821 0,200.093 69.64,200.093 69.64,274.637 106.912,274.637 106.912,200.093 176.552,200.093 "/>
  </symbol>

  <symbol viewBox="0 0 512.001 512.001" id="sv">
    <path style="fill:#4173CD;" d="M503.172,423.725H8.828c-4.875,0-8.828-3.953-8.828-8.828V97.104c0-4.875,3.953-8.828,8.828-8.828h494.345c4.875,0,8.828,3.953,8.828,8.828v317.793C512,419.773,508.047,423.725,503.172,423.725z"/>
    <polygon style="fill:#FFE15A;" points="512,229.518 211.862,229.518 211.862,88.277 158.897,88.277 158.897,229.518 0,229.518 0,282.484 158.897,282.484 158.897,423.725 211.862,423.725 211.862,282.484 512,282.484 "/>
  </symbol>

  <symbol viewBox="0 0 512.001 512.001" id="ie">
    <path style="fill:#73AF00;" d="M170.667,423.721H8.828c-4.875,0-8.828-3.953-8.828-8.828V97.1c0-4.875,3.953-8.828,8.828-8.828h161.839V423.721z"/>
    <rect x="170.67" y="88.277" style="fill:#F5F5F5;" width="170.67" height="335.45"/>
    <path style="fill:#FF9B46;" d="M503.172,423.721H341.333V88.273h161.839c4.875,0,8.828,3.953,8.828,8.828v317.793C512,419.77,508.047,423.721,503.172,423.721z"/>
  </symbol>

  <symbol viewBox="0 0 512 512" id="ph">
    <path style="fill:#F5F5F5;" d="M3.256,421.59L256,256L3.256,90.41C1.311,92.029,0,94.375,0,97.103v317.793C0,417.625,1.311,419.971,3.256,421.59z"/>
    <path style="fill:#FF4B55;" d="M3.256,421.59c1.53,1.274,3.425,2.134,5.571,2.134h494.345c4.875,0,8.828-3.953,8.828-8.828V256H256L3.256,421.59z"/>
    <path style="fill:#41479B;" d="M3.256,90.41c1.53-1.274,3.425-2.134,5.571-2.134h494.345c4.875,0,8.828,3.953,8.828,8.828V256H256L3.256,90.41z"/>
    <circle style="fill:#FFE15A;" cx="92.69" cy="256" r="28.69"/>
    <polygon style="fill:#FFE15A;" points="92.69,256 81.931,212.966 92.69,198.621 103.448,212.966 	"/>
    <polygon style="fill:#FFE15A;" points="92.69,256 103.448,299.034 92.69,313.379 81.931,299.034 	"/>
    <polygon style="fill:#FFE15A;" points="92.69,256 49.655,266.759 35.31,256 49.655,245.241 	"/>
    <polygon style="fill:#FFE15A;" points="92.69,256 135.724,245.241 150.069,256 135.724,266.759 	"/>
    <polygon style="fill:#FFE15A;" points="92.69,256 115.512,217.963 133.263,215.426 130.727,233.177 	"/>
    <polygon style="fill:#FFE15A;" points="92.69,256 69.867,294.037 52.116,296.574 54.653,278.823 	"/>
    <polygon style="fill:#FFE15A;" points="92.69,256 54.653,233.177 52.116,215.426 69.867,217.963 	"/>
    <polygon style="fill:#FFE15A;" points="92.69,256 130.727,278.823 133.263,296.574 115.512,294.037 	"/>
    <path style="fill:#FFE15A;" d="M23.658,131.694l1.496,11.16l-10.076,5.028c-1.304,0.651-1.03,2.588,0.405,2.85l11.076,2.026l1.668,11.136c0.216,1.442,2.143,1.779,2.836,0.495l5.35-9.908l11.106,1.854c1.438,0.241,2.354-1.489,1.348-2.543l-7.77-8.15l5.195-9.99c0.673-1.293-0.689-2.699-2.003-2.068l-10.152,4.872l-7.895-8.029C25.222,129.389,23.465,130.25,23.658,131.694z"/>
    <path style="fill:#FFE15A;" d="M28.102,348.906l-1.89,11.101l-11.114,1.805c-1.439,0.234-1.752,2.165-0.461,2.841l9.973,5.227l-1.717,11.128c-0.222,1.441,1.517,2.335,2.56,1.316l8.053-7.87l10.054,5.073c1.302,0.657,2.69-0.722,2.044-2.028l-4.996-10.091l7.93-7.993c1.026-1.035,0.146-2.781-1.298-2.57l-11.142,1.633l-5.152-10.013C30.279,347.17,28.345,347.468,28.102,348.906z"/>
    <path style="fill:#FFE15A;" d="M202.734,239.555l-6.481,9.208l-10.81-3.15c-1.399-0.408-2.513,1.201-1.639,2.367l6.755,9.009l-6.337,9.308c-0.82,1.205,0.365,2.761,1.745,2.29l10.655-3.64l6.894,8.903c0.893,1.153,2.739,0.505,2.717-0.952l-0.17-11.258l10.598-3.806c1.372-0.493,1.327-2.449-0.066-2.878l-10.761-3.318l-0.344-11.255C205.448,238.924,203.573,238.362,202.734,239.555z"/>
  </symbol>
</svg>